<svg width="256" height="256" viewBox="0 0 256 256" fill="none" xmlns="http://www.w3.org/2000/svg">
<rect width="256" height="256" fill="white"/>
<path d="M27.6992 116.757H49.541V138.599H27.6992V116.757Z" fill="black"/>
<path d="M49.541 116.757H71.3828V138.599H49.541V116.757Z" fill="black"/>
<path d="M71.3828 116.757H93.2246V138.599H71.3828V116.757Z" fill="black"/>
<path d="M71.3228 160.55H93.1645V182.392H71.3228V160.55Z" fill="black"/>
<path d="M93.1646 160.55H115.006V182.392H93.1646V160.55Z" fill="black"/>
<path d="M115.006 160.55H136.848V182.392H115.006V160.55Z" fill="black"/>
<path d="M70.9834 204.343H92.8252V226.185H70.9834V204.343Z" fill="black"/>
<path d="M92.8252 204.344H114.667V226.185H92.8252V204.344Z" fill="black"/>
<path d="M114.667 204.344H136.509V226.185H114.667V204.344Z" fill="black"/>
<circle cx="38.8175" cy="40.1187" r="10.9483" fill="black"/>
<circle cx="38.8175" cy="83.9119" r="10.9483" fill="black"/>
<circle cx="38.6475" cy="171.498" r="10.9483" fill="black"/>
<circle cx="38.3082" cy="215.292" r="10.9483" fill="black"/>
<circle cx="127.932" cy="40.1187" r="10.9483" fill="black"/>
<circle cx="125.508" cy="128.068" r="10.9483" fill="black"/>
<circle cx="215.009" cy="215.292" r="10.9483" fill="black"/>
<ellipse cx="82.3561" cy="40.1187" rx="10.8634" ry="10.9483" fill="black"/>
<ellipse cx="171.64" cy="215.292" rx="10.8634" ry="10.9483" fill="black"/>
<ellipse cx="82.3561" cy="83.9119" rx="10.8634" ry="10.9483" fill="black"/>
</svg>
