<svg width="256" height="256" viewBox="0 0 256 256" fill="none" xmlns="http://www.w3.org/2000/svg">
<rect width="256" height="256" fill="black"/>
<path d="M103.995 23.3542C112.115 19.5032 120.458 21.4203 125.78 28.2908C131.509 35.6861 133.337 44.2454 134.984 52.1716C139.432 73.5679 140.255 95.2508 141.434 116.606C149.678 110.505 158.511 104.512 169.114 101.29C174.717 99.5873 180.975 98.7053 186.904 98.9119C194.787 99.1866 200.782 104.031 202.133 111.267C203.288 117.453 203.95 124.156 203.019 130.594C199.445 155.292 192.216 179.209 180.567 201.944C178.172 206.619 174.924 211.07 171.258 214.962C166.621 219.884 161.096 222.311 155.61 221.782C150.119 221.252 145.229 217.813 141.758 212.158C135.945 202.687 134.17 192.286 133.186 182.227C131.872 168.778 131.006 155.26 129.999 141.852C127.598 144.543 125.473 146.924 123.512 149.471C111.917 164.532 105.467 181.612 99.9414 199.381C97.6302 206.813 94.8989 214.165 91.7998 221.357C90.2895 224.862 87.6994 228.07 84.9843 230.647C82.1402 233.347 78.807 234.762 75.3476 234.594C71.9039 234.426 68.7126 232.708 66.0898 229.88C60.4438 223.79 58.5255 216.39 57.0517 209.54C51.8671 185.441 51.5431 161.196 54.0986 136.989C57.0801 108.747 64.9877 81.5925 77.5146 55.2664L77.5302 55.2322L77.5468 55.2C82.4764 45.5825 87.8454 36.0822 96.5 28.3933C98.6727 26.4631 101.224 24.6683 103.995 23.3542ZM113.262 33.0945C112.072 32.8868 110.158 33.308 107.074 35.071C99.5962 41.0564 94.7277 48.7428 90.5488 57.0701C67.0862 103.823 60.2937 152.599 68.6816 203.132C69.7082 209.316 72.213 215.472 74.9228 221.662C75.3664 222.675 75.7291 222.907 75.8427 222.953C75.8917 222.944 76.0303 222.909 76.2636 222.747C76.5879 222.522 77.019 222.105 77.5009 221.408C79.273 218.843 80.7919 216.14 81.7871 213.412C85.2409 203.946 88.3582 194.436 91.6787 184.844C99.1852 163.162 109.578 142.605 129.048 126.56C129.052 126.554 129.06 126.545 129.067 126.533C129.103 126.475 129.151 126.378 129.198 126.241C129.298 125.95 129.338 125.638 129.331 125.433C128.586 103.178 127.695 81.1114 123.479 59.3669C121.978 51.621 119.6 43.8869 116.439 36.5525C115.32 33.955 114.208 33.2597 113.262 33.0945ZM187.759 110.355C186.45 109.595 184.463 109.224 181.845 109.568C178.288 110.036 174.703 110.924 171.466 112.209C160.709 116.477 151.433 122.866 142.66 130.066C142.652 130.075 142.507 130.229 142.364 130.641C142.225 131.045 142.163 131.486 142.17 131.811C142.325 139.052 142.693 146.273 143.02 154.241C144.076 164.836 144.528 175.076 146.306 185.266C147.59 192.629 149.9 200.014 153.01 206.962C154.215 209.655 155.601 210.443 156.613 210.552C157.725 210.672 159.487 210.108 161.645 207.783C164.894 204.284 167.694 200.279 169.755 196.155C179.666 176.319 186.084 155.467 189.968 134.024C191.124 127.638 190.903 120.809 190.071 114.134C189.834 112.228 188.973 111.061 187.759 110.355Z" fill="white" stroke="white" stroke-width="5"/>
</svg>
